HIERARCHY
ROOT hip
{
	OFFSET 0.000000 0.000000 0.000000
	CHANNELS 6 Xposition Yposition Zposition Zrotation Yrotation Xrotation 
	JOINT lhipjoint
	{
		OFFSET 0.000000 0.000000 0.000000
		CHANNELS 3 Zrotation Yrotation Xrotation
		JOINT lfemur
		{
			OFFSET 1.363060 -1.794630 0.839290
			CHANNELS 3 Zrotation Yrotation Xrotation
			JOINT ltibia
			{
				OFFSET 2.448110 -6.726130 0.000000
				CHANNELS 3 Zrotation Yrotation Xrotation
				JOINT lfoot
				{
					OFFSET 2.562200 -7.039590 0.000000
					CHANNELS 3 Zrotation Yrotation Xrotation
					JOINT ltoes
					{
						OFFSET 0.157640 -0.433110 2.322550
						CHANNELS 3 Zrotation Yrotation Xrotation
						End Site
						{
							OFFSET 0.000000 0.000000 0.000000
						}
					}
				}
			}
		}
	}
	JOINT rhipjoint
	{
		OFFSET 0.000000 0.000000 0.000000
		CHANNELS 3 Zrotation Yrotation Xrotation
		JOINT rfemur
		{
			OFFSET -1.305520 -1.794630 0.839290
			CHANNELS 3 Zrotation Yrotation Xrotation
			JOINT rtibia
			{
				OFFSET -2.542530 -6.985550 0.000000
				CHANNELS 3 Zrotation Yrotation Xrotation
				JOINT rfoot
				{
					OFFSET -2.568260 -7.056230 0.000000
					CHANNELS 3 Zrotation Yrotation Xrotation
					JOINT rtoes
					{
						OFFSET -0.164730 -0.452590 2.363150
						CHANNELS 3 Zrotation Yrotation Xrotation
						End Site
						{
							OFFSET 0.000000 0.000000 0.000000
						}
					}
				}
			}
		}
	}
	JOINT lowerback
	{
		OFFSET 0.000000 0.000000 0.000000
		CHANNELS 3 Zrotation Yrotation Xrotation
		JOINT upperback
		{
			OFFSET 0.028270 2.035590 -0.193380
			CHANNELS 3 Zrotation Yrotation Xrotation
			JOINT thorax
			{
				OFFSET 0.056720 2.048850 -0.042750
				CHANNELS 3 Zrotation Yrotation Xrotation
				JOINT lowerneck
				{
					OFFSET 0.000000 0.000000 0.000000
					CHANNELS 3 Zrotation Yrotation Xrotation
					JOINT upperneck
					{
						OFFSET -0.054170 1.746240 0.172020
						CHANNELS 3 Zrotation Yrotation Xrotation
						JOINT head
						{
							OFFSET 0.104070 1.761360 -0.123970
							CHANNELS 3 Zrotation Yrotation Xrotation
							End Site
							{
								OFFSET 0.000000 0.000000 0.000000
							}
						}
					}
				}
				JOINT lclavicle
				{
					OFFSET 0.000000 0.000000 0.000000
					CHANNELS 3 Zrotation Yrotation Xrotation
					JOINT lhumerus
					{
						OFFSET 3.362410 1.200890 -0.311210
						CHANNELS 3 Zrotation Yrotation Xrotation
						JOINT lradius
						{
							OFFSET 4.983000 -0.000000 -0.000000
							CHANNELS 3 Zrotation Yrotation Xrotation
							JOINT lwrist
							{
								OFFSET 3.483560 -0.000000 -0.000000
								CHANNELS 3 Zrotation Yrotation Xrotation
								JOINT lhand
								{
									OFFSET 0.000000 0.000000 0.000000
									CHANNELS 3 Zrotation Yrotation Xrotation
									JOINT lfingers
									{
										OFFSET 0.715260 -0.000000 -0.000000
										CHANNELS 3 Zrotation Yrotation Xrotation
										End Site
										{
											OFFSET 0.000000 0.000000 0.000000
										}
									}
								}
								JOINT lthumb
								{
									OFFSET 0.000000 0.000000 0.000000
									CHANNELS 3 Zrotation Yrotation Xrotation
									End Site
									{
										OFFSET 0.000000 0.000000 0.000000
									}
								}
							}
						}
					}
				}
				JOINT rclavicle
				{
					OFFSET 0.000000 0.000000 0.000000
					CHANNELS 3 Zrotation Yrotation Xrotation
					JOINT rhumerus
					{
						OFFSET -3.136600 1.374050 -0.404650
						CHANNELS 3 Zrotation Yrotation Xrotation
						JOINT rradius
						{
							OFFSET -5.241900 -0.000000 -0.000000
							CHANNELS 3 Zrotation Yrotation Xrotation
							JOINT rwrist
							{
								OFFSET -3.444170 -0.000000 -0.000000
								CHANNELS 3 Zrotation Yrotation Xrotation
								JOINT rhand
								{
									OFFSET 0.000000 0.000000 0.000000
									CHANNELS 3 Zrotation Yrotation Xrotation
									JOINT rfingers
									{
										OFFSET -0.622530 -0.000000 -0.000000
										CHANNELS 3 Zrotation Yrotation Xrotation
										End Site
										{
											OFFSET 0.000000 0.000000 0.000000
										}
									}
								}
								JOINT rthumb
								{
									OFFSET 0.000000 0.000000 0.000000
									CHANNELS 3 Zrotation Yrotation Xrotation
									End Site
									{
										OFFSET 0.000000 0.000000 0.000000
									}
								}
							}
						}
					}
				}
			}
		}
	}
}
MOTION
Frames: 5
Frame Time: 0.008333
5.588665 15.562054 -1.158864 -170.456775 -4.442225 178.821586 4.200777 3.280739 0.277054 6.268575 2.722317 -26.011350 9.481331 17.621747 57.555597 4.672181 -21.958343 -5.774064 3.464400 -11.411400 -33.680100 -5.261318 -4.079017 -0.008866 16.922199 -11.295015 -30.965011 -13.416654 -18.586958 68.793039 -0.669826 0.777678 -13.898903 -3.181500 10.983300 -32.223400 -2.324078 2.749845 12.508146 0.597377 3.167595 -3.454338 -0.868640 1.887321 -3.717280 6.625506 -21.386171 0.989654 10.700511 -29.877106 8.489371 2.330000 -15.071500 -5.259200 -0.735967 -9.297285 4.038565 -39.075901 -8.761016 51.291070 137.215402 -39.542748 -100.299327 2.143856 -0.870005 -7.134437 32.666071 -30.848651 -16.623600 -7.125000 0.000000 0.000000 -0.315500 -4.178100 0.337600 6.250575 9.900037 4.894759 64.636548 21.826669 76.225267 -128.766537 39.905863 -88.860968 0.602507 -2.117727 21.727628 -24.583328 -0.773576 -0.564200 7.125000 0.000000 0.000000 0.482100 -28.690200 0.191500 
5.645544 15.527617 -1.162637 -170.240143 -4.455437 178.690984 4.203711 3.258208 0.299372 6.793639 2.674503 -26.023543 9.556404 17.666388 57.788536 4.671477 -21.915523 -5.794836 3.480200 -11.434500 -33.759600 -5.315100 -4.017434 -0.127901 16.512487 -10.917517 -29.685404 -13.027770 -18.374029 67.488111 -0.670891 -0.185708 -15.282426 -3.111100 10.872700 -31.851900 -2.246024 2.823612 12.426495 0.601319 3.285299 -3.443352 -0.763109 1.946366 -3.676227 6.335374 -21.387335 1.207157 10.779046 -29.901618 8.389752 2.454900 -15.080800 -5.275600 -0.769936 -9.293761 4.074526 -39.114395 -8.527956 51.163337 137.274339 -39.537788 -100.374207 2.159205 -0.882566 -7.394802 32.584100 -31.264195 -16.754500 -7.125000 0.000000 0.000000 -0.446300 -4.581400 0.480500 6.237494 9.841412 4.920705 64.668719 22.023732 76.320698 -128.681212 39.952239 -88.752641 0.603870 -2.120245 21.853777 -24.291812 -0.859698 -0.513300 7.125000 0.000000 0.000000 0.704500 -28.794300 0.278100 
5.705325 15.492599 -1.167183 -170.059832 -4.431359 178.546339 4.204276 3.236900 0.322463 7.292891 2.643575 -25.997611 9.630087 17.705917 58.012936 4.672358 -21.889798 -5.822892 3.509800 -11.477900 -33.909100 -5.369892 -3.952767 -0.249461 16.101286 -10.514891 -28.362222 -12.637289 -18.148128 66.156688 -0.669348 -1.159464 -16.585977 -3.090800 10.840600 -31.744100 -2.211119 2.895978 12.368213 0.607450 3.396366 -3.435330 -0.617439 2.001682 -3.629497 6.041138 -21.378669 1.281184 10.785732 -29.910159 8.375634 2.513000 -15.077200 -5.230200 -0.798432 -9.288948 4.099198 -39.207938 -8.211027 51.007577 137.381755 -39.502626 -100.498682 2.169825 -0.903255 -7.532353 32.327110 -31.692554 -16.776600 -7.125000 0.000000 0.000000 -0.675000 -4.941400 0.730700 6.227685 9.795793 4.931428 64.649032 22.160002 76.375898 -128.543010 40.026804 -88.583589 0.597607 -2.124713 22.013746 -24.049148 -0.813016 -0.529300 7.125000 0.000000 0.000000 0.893100 -28.746300 0.353500 
5.767815 15.454776 -1.171633 -169.863032 -4.387656 178.398584 4.204381 3.216572 0.348612 7.825560 2.635258 -25.986320 9.704785 17.747499 58.238998 4.672865 -21.798484 -5.879776 3.557800 -11.547500 -34.149600 -5.424911 -3.888319 -0.372829 15.734018 -10.118141 -27.037620 -12.256483 -17.915823 64.837010 -0.688437 -1.893906 -17.787094 -3.011300 10.713300 -31.318900 -2.153914 2.959544 12.310613 0.614598 3.499761 -3.429862 -0.487503 2.049069 -3.547919 5.857530 -21.384772 1.145719 10.664281 -29.908526 8.497550 2.459800 -15.062700 -5.125400 -0.816004 -9.266617 4.101155 -39.258307 -7.851678 50.848629 137.566849 -39.416909 -100.695363 2.179058 -0.931955 -7.648151 32.012307 -32.096486 -16.743400 -7.125000 0.000000 0.000000 -0.927500 -5.247200 1.008600 6.233466 9.772596 4.926403 64.536396 22.270508 76.399086 -128.436700 40.087326 -88.459872 0.589749 -2.121907 22.096667 -23.835861 -0.729744 -0.560400 7.125000 0.000000 0.000000 1.063700 -28.662900 0.423200 
5.833594 15.415019 -1.176276 -169.685713 -4.327251 178.239697 4.204183 3.196674 0.375437 8.356816 2.632468 -25.961090 9.782643 17.788726 58.470348 4.676792 -21.733050 -5.959945 3.635800 -11.659400 -34.537400 -5.471844 -3.821485 -0.495614 15.358791 -9.746232 -25.724973 -11.888865 -17.683501 63.549270 -0.718012 -2.444257 -18.820962 -2.933000 10.585800 -30.895300 -2.101568 3.016036 12.277215 0.617184 3.591574 -3.427082 -0.400185 2.088021 -3.462070 5.755073 -21.399521 0.901083 10.497297 -29.908586 8.664011 2.357000 -15.048800 -4.996600 -0.835116 -9.238005 4.090812 -39.247191 -7.420214 50.672743 137.837779 -39.282934 -100.971320 2.185637 -0.971542 -7.724793 31.577986 -32.469853 -16.612000 -7.125000 0.000000 0.000000 -1.235100 -5.471800 1.347500 6.247786 9.762674 4.916001 64.330037 22.388852 76.404324 -128.416866 40.097469 -88.453421 0.586128 -2.108354 22.026464 -23.739637 -0.704027 -0.564100 7.125000 0.000000 0.000000 1.147100 -28.649000 0.456800 
